<?xml version="1.0" encoding="UTF-8" standalone="no"?>
<!-- Created with Inkscape (http://www.inkscape.org/) -->

<svg
   xmlns:dc="http://purl.org/dc/elements/1.1/"
   xmlns:cc="http://creativecommons.org/ns#"
   xmlns:rdf="http://www.w3.org/1999/02/22-rdf-syntax-ns#"
   xmlns:svg="http://www.w3.org/2000/svg"
   xmlns="http://www.w3.org/2000/svg"
   xmlns:sodipodi="http://sodipodi.sourceforge.net/DTD/sodipodi-0.dtd"
   xmlns:inkscape="http://www.inkscape.org/namespaces/inkscape"
   width="141.11111mm"
   height="141.11111mm"
   viewBox="0 0 500.00001 500.00001"
   id="svg2"
   version="1.1"
   inkscape:version="0.91 r13725"
   sodipodi:docname="login.svg">
  <defs
     id="defs4">
    <linearGradient
       gradientTransform="translate(160.78567,326.64793)"
       id="linearGradient4219"
       gradientUnits="userSpaceOnUse"
       x1="327.10999"
       y1="139.802"
       x2="335.30099"
       y2="504.74899">
      <stop
         offset="0"
         stop-color="#009FE6"
         id="stop4221" />
      <stop
         offset="1"
         stop-color="#006DB7"
         id="stop4223" />
    </linearGradient>
    <linearGradient
       y2="504.74899"
       x2="335.30099"
       y1="139.802"
       x1="327.10999"
       gradientUnits="userSpaceOnUse"
       id="Gradient_1"
       gradientTransform="translate(160.78567,326.64793)">
      <stop
         id="stop4144"
         stop-color="#009FE6"
         offset="0" />
      <stop
         id="stop4146"
         stop-color="#006DB7"
         offset="1" />
    </linearGradient>
  </defs>
  <sodipodi:namedview
     id="base"
     pagecolor="#ffffff"
     bordercolor="#666666"
     borderopacity="1.0"
     inkscape:pageopacity="0.0"
     inkscape:pageshadow="2"
     inkscape:zoom="0.22551176"
     inkscape:cx="1530.1645"
     inkscape:cy="-668.73857"
     inkscape:document-units="px"
     inkscape:current-layer="layer1"
     showgrid="false"
     fit-margin-top="0"
     fit-margin-left="0"
     fit-margin-right="0"
     fit-margin-bottom="0"
     inkscape:window-width="1366"
     inkscape:window-height="716"
     inkscape:window-x="-8"
     inkscape:window-y="-8"
     inkscape:window-maximized="1" />
  <metadata
     id="metadata7">
    <rdf:RDF>
      <cc:Work
         rdf:about="">
        <dc:format>image/svg+xml</dc:format>
        <dc:type
           rdf:resource="http://purl.org/dc/dcmitype/StillImage" />
        <dc:title></dc:title>
      </cc:Work>
    </rdf:RDF>
  </metadata>
  <g
     inkscape:label="Layer 1"
     inkscape:groupmode="layer"
     id="layer1"
     transform="translate(927.71431,91.352065)">
    <g
       id="g4148"
       transform="translate(-836.35718,278.07649)" />
    <g
       id="Font"
       transform="translate(-836.35718,278.07649)" />
    <path
       id="path4186"
       style="fill:#212121"
       d="m -681.89414,-30.3926 c -49.77609,0 -92.44078,42.66468 -92.44078,92.44077 0,49.77608 42.66469,88.88655 92.44078,88.88655 49.77609,0 92.44201,-39.11047 92.44201,-88.88655 0,-49.77609 -42.66592,-92.44077 -92.44201,-92.44077 z m 85.33109,162.02766 c -7.11087,0 -39.11044,31.99915 -85.33109,31.99915 -46.22065,0 -78.21898,-31.99913 -85.32985,-28.44369 -67.55327,0 -81.77563,81.77479 -81.77563,135.10632 0,35.55435 24.88853,60.44285 63.99832,60.44285 l 148.45541,0 c -14.79453,-16.66366 -22.62338,-39.36955 -19.68521,-63.21235 5.2403,-40.75102 39.47969,-70.10653 80.32518,-70.24889 3.07642,0.0136 6.14499,0.25069 9.19858,0.60746 19.66628,2.46991 36.76335,11.86959 49.16777,25.43742 -6.3054,-45.56104 -25.61683,-91.68827 -79.02348,-91.68827 z m 20.56509,75.61757 c 2.69378,0.0119 5.38062,0.22006 8.0544,0.53244 38.46496,4.83087 65.71856,39.92343 60.97925,78.38877 -4.83124,38.46496 -39.9238,65.71894 -78.38877,60.97924 -38.46573,-4.83124 -65.71932,-39.92379 -60.97925,-78.38875 4.58849,-35.68232 34.56933,-61.38706 70.33437,-61.5117 z m -1.05758,30.12472 c -15.57134,1.24609 -26.83926,13.0253 -27.23475,28.67513 0.28199,11.16289 5.99886,20.58571 15.968,25.72013 l -5.41758,25.47427 36.32327,0 -5.41025,-25.47851 c 9.91257,-5.3837 15.80332,-14.28794 15.96106,-25.71589 -0.21122,-16.15035 -12.70907,-28.30772 -28.71245,-28.71244 l -1.4773,0.0373 z m 0.5436,-0.15119 -0.0908,0 0.0454,5.7e-4 0.0454,-5.7e-4 z"
       inkscape:connector-curvature="0" />
  </g>
  <style
     id="style4182"
     type="text/css">
	.st0{fill:#FFB700;}
</style>
</svg>
