<?xml version="1.0" encoding="UTF-8" standalone="no"?>
<!-- Created with Inkscape (http://www.inkscape.org/) -->

<svg
   xmlns:dc="http://purl.org/dc/elements/1.1/"
   xmlns:cc="http://creativecommons.org/ns#"
   xmlns:rdf="http://www.w3.org/1999/02/22-rdf-syntax-ns#"
   xmlns:svg="http://www.w3.org/2000/svg"
   xmlns="http://www.w3.org/2000/svg"
   xmlns:sodipodi="http://sodipodi.sourceforge.net/DTD/sodipodi-0.dtd"
   xmlns:inkscape="http://www.inkscape.org/namespaces/inkscape"
   width="97.124741mm"
   height="93.546242mm"
   viewBox="0 0 344.14278 331.46306"
   id="svg4468"
   version="1.1"
   inkscape:version="0.91 r13725"
   sodipodi:docname="login_icon.svg">
  <defs
     id="defs4470" />
  <sodipodi:namedview
     id="base"
     pagecolor="#ffffff"
     bordercolor="#666666"
     borderopacity="1.0"
     inkscape:pageopacity="0.0"
     inkscape:pageshadow="2"
     inkscape:zoom="0.35"
     inkscape:cx="71.357102"
     inkscape:cy="417.1601"
     inkscape:document-units="px"
     inkscape:current-layer="layer1"
     showgrid="false"
     fit-margin-top="0"
     fit-margin-left="0"
     fit-margin-right="0"
     fit-margin-bottom="0"
     inkscape:window-width="1366"
     inkscape:window-height="716"
     inkscape:window-x="-8"
     inkscape:window-y="-8"
     inkscape:window-maximized="1" />
  <metadata
     id="metadata4473">
    <rdf:RDF>
      <cc:Work
         rdf:about="">
        <dc:format>image/svg+xml</dc:format>
        <dc:type
           rdf:resource="http://purl.org/dc/dcmitype/StillImage" />
        <dc:title></dc:title>
      </cc:Work>
    </rdf:RDF>
  </metadata>
  <g
     inkscape:label="Layer 1"
     inkscape:groupmode="layer"
     id="layer1"
     transform="translate(123.49996,-618.05924)">
    <g
       id="g4401"
       transform="translate(-284.53818,484.91388)">
      <g
         style="fill:#ffab00;fill-opacity:1"
         transform="translate(-1436.5613,398.95102)"
         id="g4301">
        <g
           style="fill:#ffab00;fill-opacity:1"
           id="g4280" />
        <g
           style="fill:#ffab00;fill-opacity:1"
           transform="matrix(0.51987356,0,0,0.51987356,1596.0399,-266.5418)"
           id="Logo">
          <path
             style="fill:#ffab00;fill-opacity:1"
             inkscape:connector-curvature="0"
             d="m 66.571,515.077 c 6.222,0.258 12.53,1.131 18.408,3.284 l -0.001,-0.055 0.888,0.319 77.475,-75.58 2.843,3.791 c 4.029,5.449 8.293,10.425 12.794,15.401 l 1.659,1.895 c 1.185,1.184 2.132,2.369 3.317,3.554 l 1.895,1.896 1.896,1.895 1.658,1.659 1.896,1.895 1.658,1.659 2.133,1.895 1.895,1.659 c 36.014,30.563 81.03,47.858 128.416,49.043 39.093,0.948 77.237,-9.003 110.645,-28.668 l 5.923,6.16 c 6.87,7.345 13.978,14.69 20.85,22.035 -41.226,26.535 -89.085,39.803 -138.367,38.619 -55.441,-1.422 -108.275,-21.324 -150.685,-56.863 l 0.235,-0.474 -49.71,49.001 c 1.841,5.795 2.574,11.87 2.651,17.931 C 126.943,611.254 99.198,639 64.972,639 30.746,639 3,611.254 3,577.028 3,542.802 30.746,515.057 64.972,515.057 l 1.599,0.02 z"
             id="path4283" />
          <path
             style="fill:#ffab00;fill-opacity:1"
             inkscape:connector-curvature="0"
             d="m 540.294,195.455 c 24.405,40.041 36.487,86.242 35.302,133.155 -1.42,57.335 -22.981,112.066 -60.89,154.95 l 0.238,0.238 30.563,32.458 c 12.319,-1.658 24.64,2.606 33.17,11.609 14.453,15.401 13.978,39.568 -1.422,54.258 -15.4,14.452 -39.567,13.978 -54.256,-1.422 -8.53,-9.004 -12.084,-21.561 -9.715,-33.644 -14.215,-15.164 -39.33,-41.936 -53.783,-57.1 l -3.079,-3.317 3.554,-2.842 c 9.239,-7.345 17.769,-15.401 25.587,-24.405 32.46,-36.487 50.704,-82.925 51.889,-131.732 0.947,-36.96 -7.82,-73.211 -25.589,-105.196 l 28.431,-27.01 z"
             id="path4285" />
          <path
             style="fill:#ffab00;fill-opacity:1"
             inkscape:connector-curvature="0"
             d="m 108.579,50.632 c 10.892,-0.161 21.1,4.137 28.7,11.906 8.529,9.004 12.083,21.561 9.714,33.645 l 58.759,61.601 -3.554,2.842 c -9.241,7.345 -17.77,15.401 -25.589,24.405 -32.458,36.486 -50.702,82.925 -52.124,131.732 -0.948,36.96 7.819,73.211 25.589,105.433 l -28.196,27.483 C 97.238,409.401 84.919,363.2 86.339,315.815 87.562,258.775 109.795,203.678 147.122,160.751 L 114.77,126.983 c -12.319,1.658 -24.64,-2.606 -33.17,-11.609 -14.451,-15.4 -13.978,-39.568 1.422,-54.257 5.994,-5.623 13.72,-9.25 21.887,-10.224 1.218,-0.145 2.446,-0.174 3.67,-0.261 z"
             id="path4287" />
          <path
             style="fill:#ffab00;fill-opacity:1"
             inkscape:connector-curvature="0"
             d="m 603.003,1.416 c 34.226,0 61.971,27.745 61.971,61.971 0,34.226 -27.745,61.972 -61.971,61.972 -6.586,0.073 -13.067,-1.139 -19.332,-3.087 l -0.018,0.068 -0.949,-0.333 -84.11,79.846 -2.842,-3.791 c -4.501,-5.923 -9.477,-11.847 -14.69,-17.297 l -0.948,-1.184 -2.606,-2.606 -0.473,-0.474 -1.659,-1.659 -0.475,-0.473 -2.132,-2.132 -1.657,-1.422 -1.659,-1.422 -2.132,-1.895 -1.66,-1.422 -2.132,-1.896 c -35.776,-30.089 -80.555,-47.148 -127.466,-48.333 -39.094,-0.947 -77.239,8.767 -110.409,28.669 l -27.01,-28.195 c 41.225,-26.536 89.084,-39.804 138.366,-38.619 55.441,1.421 108.275,21.323 150.687,57.099 l 0.473,0 55.7,-52.879 c -1.963,-5.981 -2.759,-12.26 -2.839,-18.535 0,-34.226 27.746,-61.971 61.972,-61.971 z"
             id="path4289" />
        </g>
        <g
           style="fill:#ffab00;fill-opacity:1"
           id="Font" />
      </g>
      <g
         transform="matrix(0.45482206,0,0,0.45482206,269.42042,235.18748)"
         id="g4358">
        <g
           id="g4314">
          <path
             inkscape:connector-curvature="0"
             style="fill:#fbc02d;fill-opacity:1"
             d="m 262.797,219.065 c -1.636,-1.505 -17.773,-0.464 -17.773,-0.464 l -0.184,-17.073 -7.893,-9.022 -18.709,-0.306 -0.018,-0.026 0,0 c -0.079,0.254 -0.009,-18.779 -0.009,-18.779 l -8.733,-6.327 c 0,0 -16.985,-0.499 -17.125,-0.63 l -1.365,-17.449 -15.725,-18.613 C 180.697,118.65 183.83,105.62 183.83,91.837 183.83,41.126 142.683,0.014 91.929,0.014 41.147,0.004 0,41.116 0,91.827 c 0,50.72 41.147,91.84 91.91,91.84 14.08,0 27.373,-3.264 39.3,-8.926 L 235.739,279.9 c 0,0 44.253,0.122 44.253,0.105 l 0.07,-44.664 c 0,0 -6.948,-6.773 -17.265,-16.276 z M 74.374,96.378 c -12.032,0 -21.781,-9.81 -21.781,-21.912 0,-12.102 9.748,-21.921 21.781,-21.921 12.033,0 21.79,9.818 21.79,21.921 0,12.103 -9.758,21.912 -21.79,21.912 z"
             id="path4316" />
          <path
             inkscape:connector-curvature="0"
             style="fill:#ffab00;fill-opacity:1"
             d="m 74.391,43.767 c -16.915,0 -30.628,13.713 -30.628,30.628 0,16.915 13.713,30.628 30.628,30.628 16.924,0 30.628,-13.713 30.628,-30.628 0,-16.915 -13.704,-30.628 -30.628,-30.628 z m 0,43.755 c -7.246,0 -13.126,-5.881 -13.126,-13.126 0,-7.254 5.881,-13.126 13.126,-13.126 7.246,0 13.126,5.872 13.126,13.126 0,7.245 -5.88,13.126 -13.126,13.126 z"
             id="path4318" />
          <path
             inkscape:connector-curvature="0"
             style="fill:#ffab00;fill-opacity:1"
             d="m 152.239,161.011 c -8.357,7.281 -18.027,13.03 -28.624,16.942 l 103.916,102.096 43.754,0 -119.046,-119.038 z"
             id="path4320" />
        </g>
        <g
           id="g4322" />
        <g
           id="g4324" />
        <g
           id="g4326" />
        <g
           id="g4328" />
        <g
           id="g4330" />
        <g
           id="g4332" />
        <g
           id="g4334" />
        <g
           id="g4336" />
        <g
           id="g4338" />
        <g
           id="g4340" />
        <g
           id="g4342" />
        <g
           id="g4344" />
        <g
           id="g4346" />
        <g
           id="g4348" />
        <g
           id="g4350" />
      </g>
    </g>
  </g>
</svg>
