<?xml version="1.0" encoding="UTF-8" standalone="no"?>
<!-- Created with Inkscape (http://www.inkscape.org/) -->

<svg
   xmlns:dc="http://purl.org/dc/elements/1.1/"
   xmlns:cc="http://creativecommons.org/ns#"
   xmlns:rdf="http://www.w3.org/1999/02/22-rdf-syntax-ns#"
   xmlns:svg="http://www.w3.org/2000/svg"
   xmlns="http://www.w3.org/2000/svg"
   xmlns:sodipodi="http://sodipodi.sourceforge.net/DTD/sodipodi-0.dtd"
   xmlns:inkscape="http://www.inkscape.org/namespaces/inkscape"
   width="141.11111mm"
   height="141.11111mm"
   viewBox="0 0 500.00001 500.00001"
   id="svg4173"
   version="1.1"
   inkscape:version="0.91 r13725"
   sodipodi:docname="radar-off1.svg">
  <defs
     id="defs4175" />
  <sodipodi:namedview
     id="base"
     pagecolor="#ffffff"
     bordercolor="#666666"
     borderopacity="1.0"
     inkscape:pageopacity="0.0"
     inkscape:pageshadow="2"
     inkscape:zoom="0.35"
     inkscape:cx="260.7143"
     inkscape:cy="375.71428"
     inkscape:document-units="px"
     inkscape:current-layer="layer1"
     showgrid="false"
     fit-margin-top="0"
     fit-margin-left="0"
     fit-margin-right="0"
     fit-margin-bottom="0"
     inkscape:window-width="1366"
     inkscape:window-height="716"
     inkscape:window-x="-8"
     inkscape:window-y="-8"
     inkscape:window-maximized="1" />
  <metadata
     id="metadata4178">
    <rdf:RDF>
      <cc:Work
         rdf:about="">
        <dc:format>image/svg+xml</dc:format>
        <dc:type
           rdf:resource="http://purl.org/dc/dcmitype/StillImage" />
        <dc:title></dc:title>
      </cc:Work>
    </rdf:RDF>
  </metadata>
  <g
     inkscape:label="Layer 1"
     inkscape:groupmode="layer"
     id="layer1"
     transform="translate(312.85715,-408.07647)">
    <path
       id="circle4970"
       style="opacity:1;fill:#000000;fill-opacity:1;stroke:none;stroke-width:6;stroke-linecap:round;stroke-miterlimit:4;stroke-dasharray:none"
       d="m -209.79186,656.1098 a 147.03305,147.03305 0 0 0 -0.0986,1.96669 147.03305,147.03305 0 0 0 0.0691,1.96668 l 293.8989,0 a 147.03305,147.03305 0 0 0 0.0986,-1.96668 147.03305,147.03305 0 0 0 -0.0691,-1.96669 l -293.8989,0 z M -62.85649,511.04382 a 147.03305,147.03305 0 0 0 -1.96669,0.0691 l 0,293.89763 a 147.03305,147.03305 0 0 0 1.96669,0.0985 147.03305,147.03305 0 0 0 1.96668,-0.0691 l 0,-293.89762 a 147.03305,147.03305 0 0 0 -1.96668,-0.0986 z m 32.77769,173.25515 a 7.4921301,7.4921301 0 0 1 -7.49213,7.49213 7.4921301,7.4921301 0 0 1 -7.49214,-7.49213 7.4921301,7.4921301 0 0 1 7.49214,-7.49214 7.4921301,7.4921301 0 0 1 7.49213,7.49214 z m -82.41343,-73.04825 a 7.4921301,7.4921301 0 0 1 -7.49213,7.49212 7.4921301,7.4921301 0 0 1 -7.49214,-7.49212 7.4921301,7.4921301 0 0 1 7.49214,-7.49214 7.4921301,7.4921301 0 0 1 7.49213,7.49214 z M 18.62004,605.6316 a 7.4921301,7.4921301 0 0 1 -7.49212,7.49214 7.4921301,7.4921301 0 0 1 -7.4921497,-7.49214 7.4921301,7.4921301 0 0 1 7.4921497,-7.49213 7.4921301,7.4921301 0 0 1 7.49212,7.49213 z m -153.58865,155.46169 a 7.4921301,7.4921301 0 0 1 -7.49213,7.49213 7.4921301,7.4921301 0 0 1 -7.49214,-7.49213 7.4921301,7.4921301 0 0 1 7.49214,-7.49213 7.4921301,7.4921301 0 0 1 7.49213,7.49213 z m 72.11212,-164.02881 c -33.67242,0 -61.01202,27.3396 -61.01202,61.01201 0,33.6724 27.3396,61.01202 61.01202,61.01202 33.6724,0 61.0107203,-27.33962 61.0107203,-61.01202 0,-33.67241 -27.3383203,-61.01201 -61.0107203,-61.01201 z m 0,3.93336 c 31.54664,0 57.0773603,25.53199 57.0773603,57.07865 0,31.54665 -25.5307303,57.07865 -57.0773603,57.07865 -31.54667,0 -57.07867,-25.532 -57.07867,-57.07865 0,-31.54666 25.532,-57.07865 57.07867,-57.07865 z m 0,-53.02109 c -60.78308,0 -110.09974,49.31667 -110.09974,110.09974 0,60.78307 49.31666,110.09975 110.09974,110.09975 60.7830703,0 110.09973,-49.31668 110.09973,-110.09975 0,-60.78307 -49.3166697,-110.09974 -110.09973,-110.09974 z m 0,3.93338 c 58.6573103,0 106.16636,47.50904 106.16636,106.16636 0,58.65732 -47.5090597,106.16637 -106.16636,106.16637 -58.65732,0 -106.16637,-47.50905 -106.16637,-106.16637 0,-58.65732 47.50905,-106.16636 106.16637,-106.16636 z m 0,-42.833 c -82.267,0 -149.00065,66.73238 -149.00065,148.99936 0,82.26698 66.73365,148.99936 149.00065,148.99936 82.26697,0 148.99935,-66.73238 148.99935,-148.99936 0,-82.26698 -66.73238,-148.99936 -148.99935,-148.99936 z m 0,3.93337 c 80.14124,0 145.06599,64.92475 145.06599,145.06599 0,80.14124 -64.92476,145.06599 -145.06599,145.06599 -80.14125,0 -145.06728,-64.92475 -145.06728,-145.06599 0,-80.14124 64.92604,-145.06599 145.06728,-145.06599 z"
       inkscape:connector-curvature="0" />
  </g>
</svg>
