<?xml version="1.0" encoding="UTF-8" standalone="no"?>
<!-- Created with Inkscape (http://www.inkscape.org/) -->

<svg
   xmlns:dc="http://purl.org/dc/elements/1.1/"
   xmlns:cc="http://creativecommons.org/ns#"
   xmlns:rdf="http://www.w3.org/1999/02/22-rdf-syntax-ns#"
   xmlns:svg="http://www.w3.org/2000/svg"
   xmlns="http://www.w3.org/2000/svg"
   xmlns:sodipodi="http://sodipodi.sourceforge.net/DTD/sodipodi-0.dtd"
   xmlns:inkscape="http://www.inkscape.org/namespaces/inkscape"
   width="14.111113mm"
   height="14.111049mm"
   viewBox="0 0 50.000005 49.999779"
   id="svg5001"
   version="1.1"
   inkscape:version="0.91 r13725"
   sodipodi:docname="radar-off.svg">
  <defs
     id="defs5003" />
  <sodipodi:namedview
     id="base"
     pagecolor="#ffffff"
     bordercolor="#666666"
     borderopacity="1.0"
     inkscape:pageopacity="0.0"
     inkscape:pageshadow="2"
     inkscape:zoom="0.35"
     inkscape:cx="-110.57101"
     inkscape:cy="510.1423"
     inkscape:document-units="px"
     inkscape:current-layer="layer1"
     showgrid="false"
     fit-margin-top="0"
     fit-margin-left="0"
     fit-margin-right="0"
     fit-margin-bottom="0"
     inkscape:window-width="1366"
     inkscape:window-height="716"
     inkscape:window-x="-8"
     inkscape:window-y="-8"
     inkscape:window-maximized="1" />
  <metadata
     id="metadata5006">
    <rdf:RDF>
      <cc:Work
         rdf:about="">
        <dc:format>image/svg+xml</dc:format>
        <dc:type
           rdf:resource="http://purl.org/dc/dcmitype/StillImage" />
        <dc:title></dc:title>
      </cc:Work>
    </rdf:RDF>
  </metadata>
  <g
     inkscape:label="Layer 1"
     inkscape:groupmode="layer"
     id="layer1"
     transform="translate(-64.142436,-992.50472)">
    <path
       inkscape:connector-curvature="0"
       id="circle4970"
       style="opacity:1;fill:#000000;fill-opacity:1;stroke:none;stroke-width:6;stroke-linecap:round;stroke-miterlimit:4;stroke-dasharray:none"
       d="m 64.488958,1017.1746 a 24.669974,24.669974 0 0 0 -0.01654,0.33 24.669974,24.669974 0 0 0 0.0116,0.33 l 49.311892,0 a 24.669974,24.669974 0 0 0 0.0165,-0.33 24.669974,24.669974 0 0 0 -0.0116,-0.33 l -49.311892,0 z m 24.653585,-24.3399 a 24.669974,24.669974 0 0 0 -0.32998,0.0116 l 0,49.3117 a 24.669974,24.669974 0 0 0 0.32998,0.017 24.669974,24.669974 0 0 0 0.329981,-0.012 l 0,-49.31166 a 24.669974,24.669974 0 0 0 -0.329981,-0.0165 z m 5.499614,29.0697 a 1.2570687,1.2570687 0 0 1 -1.257068,1.257 1.2570687,1.2570687 0 0 1 -1.25707,-1.257 1.2570687,1.2570687 0 0 1 1.25707,-1.2571 1.2570687,1.2570687 0 0 1 1.257068,1.2571 z M 80.8144,1009.6479 a 1.2570687,1.2570687 0 0 1 -1.257068,1.2571 1.2570687,1.2570687 0 0 1 -1.257069,-1.2571 1.2570687,1.2570687 0 0 1 1.257069,-1.257 1.2570687,1.2570687 0 0 1 1.257068,1.257 z m 21.9987,-0.9428 a 1.2570687,1.2570687 0 0 1 -1.25707,1.2571 1.2570687,1.2570687 0 0 1 -1.25706,-1.2571 1.2570687,1.2570687 0 0 1 1.25706,-1.257 1.2570687,1.2570687 0 0 1 1.25707,1.257 z m -25.769904,26.0842 a 1.2570687,1.2570687 0 0 1 -1.257069,1.2571 1.2570687,1.2570687 0 0 1 -1.257069,-1.2571 1.2570687,1.2570687 0 0 1 1.257069,-1.2571 1.2570687,1.2570687 0 0 1 1.257069,1.2571 z m 12.099347,-27.5216 c -5.649731,0 -10.236915,4.5872 -10.236915,10.2369 0,5.6497 4.587184,10.2369 10.236915,10.2369 5.649732,0 10.236702,-4.5872 10.236702,-10.2369 0,-5.6497 -4.58697,-10.2369 -10.236702,-10.2369 z m 0,0.66 c 5.293063,0 9.576741,4.2838 9.576741,9.5769 0,5.2931 -4.283678,9.577 -9.576741,9.577 -5.293062,0 -9.576954,-4.2839 -9.576954,-9.577 0,-5.2931 4.283892,-9.5769 9.576954,-9.5769 z m 0,-8.8962 c -10.1985,0 -18.473108,8.2746 -18.473108,18.4731 0,10.1985 8.274608,18.4731 18.473108,18.4731 10.198502,0 18.473107,-8.2746 18.473107,-18.4731 0,-10.1985 -8.274605,-18.4731 -18.473107,-18.4731 z m 0,0.65996 c 9.841833,0 17.813147,7.97134 17.813147,17.81314 0,9.8418 -7.971314,17.8132 -17.813147,17.8132 -9.841831,0 -17.813147,-7.9714 -17.813147,-17.8132 0,-9.8418 7.971316,-17.81314 17.813147,-17.81314 z m 0,-7.18674 c -13.803184,0 -25.000107,11.19668 -25.000107,24.99988 0,13.8032 11.196923,24.9999 25.000107,24.9999 13.803187,0 24.999897,-11.1967 24.999897,-24.9999 0,-13.8032 -11.19671,-24.99988 -24.999897,-24.99988 z m 0,0.65996 c 13.446517,0 24.339927,10.89342 24.339927,24.33992 0,13.4465 -10.89341,24.3399 -24.339927,24.3399 -13.446515,0 -24.340146,-10.8934 -24.340146,-24.3399 0,-13.4465 10.893631,-24.33992 24.340146,-24.33992 z" />
  </g>
</svg>
