<?xml version="1.0" encoding="UTF-8" standalone="no"?>
<!-- Generator: Adobe Illustrator 19.0.0, SVG Export Plug-In . SVG Version: 6.00 Build 0)  -->

<svg
   xmlns:dc="http://purl.org/dc/elements/1.1/"
   xmlns:cc="http://creativecommons.org/ns#"
   xmlns:rdf="http://www.w3.org/1999/02/22-rdf-syntax-ns#"
   xmlns:svg="http://www.w3.org/2000/svg"
   xmlns="http://www.w3.org/2000/svg"
   xmlns:sodipodi="http://sodipodi.sourceforge.net/DTD/sodipodi-0.dtd"
   xmlns:inkscape="http://www.inkscape.org/namespaces/inkscape"
   version="1.1"
   id="Capa_1"
   x="0px"
   y="0px"
   viewBox="0 0 47.75065 45.755937"
   xml:space="preserve"
   inkscape:version="0.91 r13725"
   sodipodi:docname="silver-star.svg"
   width="47.750648"
   height="45.755936"><metadata
     id="metadata39"><rdf:RDF><cc:Work
         rdf:about=""><dc:format>image/svg+xml</dc:format><dc:type
           rdf:resource="http://purl.org/dc/dcmitype/StillImage" /><dc:title></dc:title></cc:Work></rdf:RDF></metadata><defs
     id="defs37" /><sodipodi:namedview
     pagecolor="#ffffff"
     bordercolor="#666666"
     borderopacity="1"
     objecttolerance="10"
     gridtolerance="10"
     guidetolerance="10"
     inkscape:pageopacity="0"
     inkscape:pageshadow="2"
     inkscape:window-width="1366"
     inkscape:window-height="716"
     id="namedview35"
     showgrid="false"
     fit-margin-top="0"
     fit-margin-left="0"
     fit-margin-right="0"
     fit-margin-bottom="0"
     inkscape:zoom="4.9228203"
     inkscape:cx="35.846767"
     inkscape:cy="23.094921"
     inkscape:window-x="-8"
     inkscape:window-y="-8"
     inkscape:window-maximized="1"
     inkscape:current-layer="Capa_1" /><path
     style="fill:#c0c0c0;stroke:#78909c;stroke-width:1.915;fill-opacity:1;stroke-miterlimit:4;stroke-dasharray:none;stroke-opacity:1"
     d="m 26.091397,2.2939875 5.177157,10.4902815 c 0.360018,0.729608 1.056113,1.235164 1.861364,1.351978 L 44.70695,15.81856 c 2.027968,0.294907 2.837048,2.786301 1.37017,4.215836 l -8.377094,8.165489 c -0.582156,0.567792 -0.848338,1.386448 -0.710459,2.187868 l 1.97722,11.530116 c 0.346612,2.01935 -1.773274,3.558996 -3.586764,2.606292 l -10.354315,-5.44334 c -0.720033,-0.37821 -1.580819,-0.37821 -2.300853,0 L 12.37054,44.524161 C 10.557051,45.477823 8.4371638,43.937219 8.7837758,41.917869 L 10.760997,30.387753 c 0.137878,-0.80142 -0.128304,-1.620076 -0.710459,-2.187868 L 1.6734428,20.034396 C 0.20656546,18.603903 1.0156461,16.112509 3.0436135,15.81856 L 14.620646,14.136247 c 0.80525,-0.116814 1.501347,-0.62237 1.861363,-1.351978 L 21.659167,2.2939875 c 0.905788,-1.83742661 3.525485,-1.83742661 4.43223,0 z"
     id="path3"
     inkscape:connector-curvature="0" /><g
     id="g5"
     transform="translate(0.60274297,-1.3089834)" /><g
     id="g7"
     transform="translate(0.60274297,-1.3089834)" /><g
     id="g9"
     transform="translate(0.60274297,-1.3089834)" /><g
     id="g11"
     transform="translate(0.60274297,-1.3089834)" /><g
     id="g13"
     transform="translate(0.60274297,-1.3089834)" /><g
     id="g15"
     transform="translate(0.60274297,-1.3089834)" /><g
     id="g17"
     transform="translate(0.60274297,-1.3089834)" /><g
     id="g19"
     transform="translate(0.60274297,-1.3089834)" /><g
     id="g21"
     transform="translate(0.60274297,-1.3089834)" /><g
     id="g23"
     transform="translate(0.60274297,-1.3089834)" /><g
     id="g25"
     transform="translate(0.60274297,-1.3089834)" /><g
     id="g27"
     transform="translate(0.60274297,-1.3089834)" /><g
     id="g29"
     transform="translate(0.60274297,-1.3089834)" /><g
     id="g31"
     transform="translate(0.60274297,-1.3089834)" /><g
     id="g33"
     transform="translate(0.60274297,-1.3089834)" /></svg>